<?xml version="1.0" standalone="no"?>
<!DOCTYPE svg PUBLIC "-//W3C//DTD SVG 20010904//EN"
 "http://www.w3.org/TR/2001/REC-SVG-20010904/DTD/svg10.dtd">
<svg version="1.0" xmlns="http://www.w3.org/2000/svg"
 width="2000.000000pt" height="2000.000000pt" viewBox="0 0 2000.000000 2000.000000"
 preserveAspectRatio="xMidYMid meet">
<metadata>
Created by potrace 1.11, written by Peter Selinger 2001-2013
</metadata>
<g transform="translate(0.000000,2000.000000) scale(0.100000,-0.100000)"
fill="#F5F5F5" stroke="none">
<path d="M9670 14069 c-52 -4 -110 -12 -130 -17 -19 -6 -69 -17 -110 -25 -101
-20 -161 -35 -185 -47 -11 -5 -39 -14 -62 -20 -23 -6 -54 -17 -70 -25 -15 -8
-34 -15 -41 -15 -6 0 -29 -9 -49 -20 -21 -11 -43 -20 -50 -20 -7 0 -13 -4 -13
-9 0 -5 -12 -12 -27 -16 -15 -3 -57 -24 -94 -46 -37 -21 -72 -39 -78 -39 -6 0
-11 -4 -11 -8 0 -5 -11 -14 -25 -20 -36 -16 -214 -148 -295 -217 -83 -71 -220
-215 -285 -300 -11 -14 -24 -31 -30 -38 -35 -43 -65 -87 -65 -96 0 -6 -4 -11
-9 -11 -5 0 -14 -13 -21 -30 -7 -16 -15 -30 -19 -30 -3 0 -19 -26 -36 -58 -16
-31 -33 -59 -36 -62 -3 -3 -12 -22 -20 -42 -7 -21 -17 -38 -21 -38 -4 0 -8 -5
-8 -11 0 -5 -12 -36 -26 -67 -48 -105 -54 -120 -54 -132 0 -7 -6 -26 -14 -43
-20 -46 -54 -164 -62 -217 -4 -25 -10 -49 -14 -55 -10 -12 -30 -173 -30 -237
0 -26 -4 -50 -10 -53 -13 -8 -14 -4208 -1 -4233 5 -9 15 -37 21 -62 39 -146
223 -303 386 -330 32 -5 74 -12 92 -16 19 -4 43 -2 55 4 12 6 45 13 74 16 46
4 107 28 183 71 14 8 50 39 81 70 71 70 126 174 135 253 4 31 11 63 16 69 6 8
7 28 3 50 -5 21 -10 401 -12 846 l-3 807 60 0 60 0 -4 -1182 c-3 -651 -6
-1212 -7 -1248 -7 -189 114 -379 296 -470 l70 -35 155 0 c140 0 159 2 202 23
26 12 51 22 57 22 5 0 11 3 13 8 2 4 22 20 46 36 35 24 82 71 121 122 20 25
61 110 61 124 0 9 6 22 13 28 9 10 13 285 15 1292 l2 1280 40 0 40 0 3 -1612
c3 -1599 5 -1695 35 -1717 4 -4 21 -32 37 -64 35 -69 119 -151 190 -187 28
-14 52 -28 55 -32 14 -18 121 -30 238 -26 123 3 129 4 204 41 120 59 246 201
264 298 4 19 11 39 16 46 6 7 9 657 8 1632 l-1 1621 70 0 70 0 3 -712 3 -713
23 -47 c12 -26 22 -52 22 -57 0 -6 3 -11 8 -11 4 0 13 -12 20 -27 21 -48 166
-183 196 -183 4 0 28 -10 54 -22 42 -21 62 -23 192 -23 l145 0 78 39 c101 50
218 163 233 224 4 12 10 22 14 22 5 0 12 15 15 33 4 17 12 38 19 46 14 18 21
3860 7 3972 -19 142 -61 350 -81 394 -5 11 -14 40 -21 65 -6 25 -14 50 -19 55
-4 6 -11 25 -15 43 -3 17 -10 32 -15 32 -4 0 -11 12 -14 28 -10 38 -127 272
-138 272 -4 0 -8 5 -8 12 0 11 -47 86 -61 98 -3 3 -12 16 -19 29 -15 30 -10
24 -112 146 -127 153 -210 232 -404 384 -5 4 -30 21 -55 37 -24 16 -46 31 -49
34 -31 33 -335 183 -455 225 -44 15 -89 31 -100 36 -26 11 -90 27 -185 46 -41
8 -91 19 -110 24 -94 26 -422 35 -630 18z m-707 -1852 c157 -66 205 -266 95
-392 -55 -62 -105 -85 -189 -85 -78 0 -114 16 -171 75 -35 37 -67 110 -70 162
-3 34 24 122 43 145 55 64 83 89 112 97 48 14 144 13 180 -2z m2113 -15 c41
-21 77 -56 110 -107 15 -23 19 -48 19 -110 0 -70 -3 -85 -27 -122 -58 -88
-123 -127 -213 -126 -141 1 -245 103 -245 241 0 68 20 124 58 166 33 35 91 72
123 79 46 10 136 -1 175 -21z m-545 -1023 c19 -10 16 -33 -16 -123 -36 -99
-122 -217 -183 -250 -132 -71 -178 -80 -382 -81 -152 0 -251 12 -299 35 -9 4
-38 18 -66 31 -53 25 -162 127 -182 169 -36 78 -45 104 -53 157 -4 32 -6 62
-3 66 6 11 1164 7 1184 -4z"/>
</g>
</svg>
